<svg xmlns="http://www.w3.org/2000/svg" viewBox="0 0 533.72 198.95" width="533.72" height="198.95"><rect width="533.7189000000001" height="198.95315" fill="#0F2338"/><g transform="translate(44.48,44.48)"><g transform="translate(0,0) scale(0.916667)"><path d="M37 8H49A11 11 0 0 1 60 19V79A11 11 0 0 1 49 90H37A11 11 0 0 1 26 79V19A11 11 0 0 1 37 8ZM60 25H42A3 3 0 0 0 42 31H60ZM60 44H50A3 3 0 0 0 50 50H60ZM60 63H42A3 3 0 0 0 42 69H60Z" fill-rule="evenodd" fill="#F7F4ED"/><path d="M20 94H100A8 8 0 0 1 100 110H20A8 8 0 0 1 20 94Z" fill="#F7F4ED"/><path d="M70 23H99A5 5 0 0 1 99 33H70A5 5 0 0 1 70 23Z" fill="#EFA860"/></g><g transform="translate(138.60,58.76)"><g fill="#F7F4ED" transform="translate(0,0)"><g transform="translate(0.000,0) scale(0.061050,-0.061050)"><path d="M311 -14Q232 -14 171.0 14.0Q110 42 75.5 96.5Q41 151 41 229V254H148V229Q148 155 192.5 118.0Q237 81 311 81Q386 81 424.0 112.5Q462 144 462 194Q462 227 444.0 248.0Q426 269 393.0 281.5Q360 294 314 305L277 314Q210 330 160.5 353.5Q111 377 84.0 416.0Q57 455 57 516Q57 578 87.5 622.0Q118 666 172.0 690.0Q226 714 299 714Q372 714 429.5 689.0Q487 664 520.0 615.0Q553 566 553 492V456H446V492Q446 537 427.5 565.0Q409 593 376.0 606.0Q343 619 299 619Q235 619 199.5 592.5Q164 566 164 519Q164 487 179.5 466.5Q195 446 225.0 433.0Q255 420 300 410L337 401Q405 386 457.0 362.5Q509 339 539.0 299.0Q569 259 569 196Q569 133 537.5 86.0Q506 39 448.0 12.5Q390 -14 311 -14Z"/></g><g transform="translate(36.874,0) scale(0.061050,-0.061050)"><path d="M261 0Q216 0 189.5 27.0Q163 54 163 99V406H27V493H163V656H266V493H413V406H266V117Q266 87 294 87H397V0Z"/></g><g transform="translate(64.530,0) scale(0.061050,-0.061050)"><path d="M307 -14Q233 -14 175.5 16.5Q118 47 85.0 104.0Q52 161 52 239V254Q52 332 85.0 388.5Q118 445 175.5 476.0Q233 507 307 507Q381 507 439.0 476.0Q497 445 530.0 388.5Q563 332 563 254V239Q563 161 530.0 104.0Q497 47 439.0 16.5Q381 -14 307 -14ZM307 78Q375 78 417.5 121.5Q460 165 460 242V251Q460 328 418.0 371.5Q376 415 307 415Q240 415 197.5 371.5Q155 328 155 251V242Q155 165 197.5 121.5Q240 78 307 78Z"/></g><g transform="translate(101.770,0) scale(0.061050,-0.061050)"><path d="M76 0V493H177V435H193Q205 466 231.5 480.5Q258 495 297 495H356V402H293Q243 402 211.0 374.5Q179 347 179 290V0Z"/></g><g transform="translate(125.091,0) scale(0.061050,-0.061050)"><path d="M133 -200V-110H408Q436 -110 436 -80V72H420Q411 52 392.5 33.5Q374 15 343.0 3.0Q312 -9 265 -9Q209 -9 165.0 16.0Q121 41 96.0 87.0Q71 133 71 196V493H174V204Q174 140 206.0 109.5Q238 79 295 79Q358 79 396.5 121.0Q435 163 435 243V493H538V-101Q538 -146 511.5 -173.0Q485 -200 439 -200Z"/></g><g transform="translate(162.271,0) scale(0.061050,-0.061050)"><path d="M278 -14Q184 -14 122.0 28.0Q60 70 46 155L142 178Q150 137 169.0 113.0Q188 89 216.5 79.0Q245 69 278 69Q327 69 353.5 88.0Q380 107 380 137Q380 167 355.0 181.0Q330 195 281 204L247 210Q197 219 156.0 236.0Q115 253 91.0 283.0Q67 313 67 360Q67 430 119.0 468.5Q171 507 257 507Q340 507 393.5 469.5Q447 432 463 368L367 341Q358 386 329.0 404.5Q300 423 257 423Q215 423 191.0 407.5Q167 392 167 364Q167 334 190.5 320.0Q214 306 254 299L289 293Q342 284 386.0 268.0Q430 252 455.5 222.0Q481 192 481 142Q481 68 426.0 27.0Q371 -14 278 -14Z"/></g><g transform="translate(194.017,0) scale(0.061050,-0.061050)"><path d="M261 0Q216 0 189.5 27.0Q163 54 163 99V406H27V493H163V656H266V493H413V406H266V117Q266 87 294 87H397V0Z"/></g><g transform="translate(221.673,0) scale(0.061050,-0.061050)"><path d="M76 0V493H179V0ZM128 560Q98 560 77.5 579.5Q57 599 57 630Q57 661 77.5 680.5Q98 700 128 700Q159 700 179.0 680.5Q199 661 199 630Q199 599 179.0 579.5Q159 560 128 560Z"/></g><g transform="translate(236.996,0) scale(0.061050,-0.061050)"><path d="M305 -14Q234 -14 176.5 16.0Q119 46 85.5 103.0Q52 160 52 240V253Q52 333 85.5 389.5Q119 446 176.5 476.5Q234 507 305 507Q376 507 426.0 481.0Q476 455 506.5 412.0Q537 369 546 317L446 296Q441 329 425.0 356.0Q409 383 380.0 399.0Q351 415 307 415Q264 415 229.5 395.5Q195 376 175.0 339.5Q155 303 155 251V242Q155 190 175.0 153.0Q195 116 229.5 97.0Q264 78 307 78Q372 78 406.0 111.5Q440 145 449 197L549 174Q537 123 506.5 80.0Q476 37 426.0 11.5Q376 -14 305 -14Z"/></g><g transform="translate(272.832,0) scale(0.061050,-0.061050)"><path d="M76 0V700H179V301H195L389 493H526L277 254L534 0H398L195 205H179V0Z"/></g></g></g><g fill="#A9C7E5" transform="translate(139.60,102.73)"><g transform="translate(0.000,0) scale(0.010474,-0.010474)"><path d="M649 0H281V200H637Q806 200 918.0 263.0Q1030 326 1086.0 448.5Q1142 571 1142 747Q1142 922 1086.5 1043.0Q1031 1164 921.5 1227.0Q812 1290 649 1290H273V1490H664Q884 1490 1041.0 1401.0Q1198 1312 1282.0 1145.5Q1366 979 1366 747Q1366 514 1281.5 347.0Q1197 180 1036.5 90.0Q876 0 649 0ZM393 1490V0H165V1490Z"/></g><g transform="translate(15.737,0) scale(0.010474,-0.010474)"><path d="M148 0V1118H361V938H373Q404 1030 481.0 1082.0Q558 1134 656 1134Q677 1134 704.0 1132.5Q731 1131 749 1128V918Q737 922 703.0 926.0Q669 930 634 930Q558 930 497.0 898.0Q436 866 402.0 809.5Q368 753 368 679V0Z"/></g><g transform="translate(24.290,0) scale(0.010474,-0.010474)"><path d="M461 -25Q355 -25 269.0 14.5Q183 54 133.0 130.0Q83 206 83 316Q83 411 119.5 472.0Q156 533 218.5 569.0Q281 605 357.5 623.0Q434 641 513 650Q612 662 674.0 669.5Q736 677 765.5 694.5Q795 712 795 751V757Q795 820 771.0 863.0Q747 906 699.5 929.5Q652 953 581 953Q508 953 455.5 930.5Q403 908 370.5 873.0Q338 838 322 800L115 854Q153 954 224.0 1015.0Q295 1076 387.0 1104.0Q479 1132 577 1132Q645 1132 721.0 1116.0Q797 1100 864.0 1058.0Q931 1016 973.0 940.0Q1015 864 1015 742V0H802V153H791Q769 110 726.0 69.0Q683 28 617.5 1.5Q552 -25 461 -25ZM510 152Q600 152 664.0 187.0Q728 222 762.0 280.0Q796 338 796 403V546Q784 534 750.5 524.5Q717 515 674.0 507.5Q631 500 591.0 495.0Q551 490 525 487Q463 479 411.5 460.0Q360 441 329.5 406.0Q299 371 299 313Q299 260 326.5 224.0Q354 188 401.0 170.0Q448 152 510 152Z"/></g><g transform="translate(36.728,0) scale(0.010474,-0.010474)"><path d="M393 0 57 1118H289L412 655Q439 551 470.0 423.5Q501 296 530 136H498Q527 290 558.0 418.0Q589 546 617 655L740 1118H960L1081 655Q1109 549 1139.5 421.0Q1170 293 1199 136H1166Q1196 291 1226.0 419.0Q1256 547 1284 655L1407 1118H1641L1304 0H1083L945 481Q924 554 904.0 633.5Q884 713 865.0 796.0Q846 879 826 961H871Q852 880 832.5 796.5Q813 713 793.0 632.5Q773 552 752 481L614 0Z"/></g><g transform="translate(60.746,0) scale(0.010474,-0.010474)"><path d="M148 0V1118H368V0ZM259 1289Q202 1289 161.5 1327.0Q121 1365 121 1419Q121 1474 161.5 1512.0Q202 1550 259 1550Q316 1550 357.0 1512.0Q398 1474 398 1419Q398 1365 357.0 1327.0Q316 1289 259 1289Z"/></g><g transform="translate(66.408,0) scale(0.010474,-0.010474)"><path d="M626 1118V939H20V1118ZM183 1384H403V302Q403 235 431.5 203.5Q460 172 525 172Q542 172 570.0 176.0Q598 180 618 184L657 8Q622 -4 582.0 -9.5Q542 -15 503 -15Q351 -15 267.0 63.5Q183 142 183 284Z"/></g><g transform="translate(79.941,0) scale(0.010474,-0.010474)"><path d="M703 -22Q602 -22 537.5 12.5Q473 47 436.5 93.0Q400 139 380 175H362V0H148V1490H368V936H380Q400 971 435.5 1017.0Q471 1063 534.5 1097.5Q598 1132 703 1132Q837 1132 942.5 1064.0Q1048 996 1109.0 867.0Q1170 738 1170 556Q1170 376 1110.0 246.5Q1050 117 944.5 47.5Q839 -22 703 -22ZM654 165Q750 165 815.0 217.0Q880 269 912.5 358.0Q945 447 945 558Q945 668 912.5 755.5Q880 843 815.5 894.0Q751 945 654 945Q560 945 495.0 896.5Q430 848 397.0 761.5Q364 675 364 558Q364 442 397.5 353.5Q431 265 496.0 215.0Q561 165 654 165Z"/></g><g transform="translate(93.458,0) scale(0.010474,-0.010474)"><path d="M630 -23Q465 -23 345.0 48.0Q225 119 160.5 248.0Q96 377 96 551Q96 723 159.5 854.0Q223 985 339.0 1058.5Q455 1132 611 1132Q707 1132 796.0 1100.5Q885 1069 956.0 1002.0Q1027 935 1068.5 828.5Q1110 722 1110 570V492H219V656H997L894 602Q894 705 862.0 783.5Q830 862 767.5 906.0Q705 950 611 950Q518 950 452.0 905.0Q386 860 351.5 786.5Q317 713 317 626V514Q317 399 356.5 319.5Q396 240 467.0 199.5Q538 159 632 159Q694 159 744.0 176.5Q794 194 830.5 229.5Q867 265 886 317L1093 268Q1066 182 1002.5 116.0Q939 50 844.5 13.5Q750 -23 630 -23Z"/></g><g transform="translate(106.315,0) scale(0.010474,-0.010474)"><path d="M702 1118V939H20V1118ZM232 0V1246Q232 1350 278.5 1420.0Q325 1490 401.0 1525.0Q477 1560 565 1560Q632 1560 679.5 1549.0Q727 1538 749 1530L698 1352Q682 1357 658.5 1362.5Q635 1368 600 1368Q522 1368 487.0 1329.0Q452 1290 452 1216V0Z"/></g><g transform="translate(114.711,0) scale(0.010474,-0.010474)"><path d="M618 -23Q461 -23 343.5 49.0Q226 121 161.0 251.0Q96 381 96 553Q96 727 161.0 857.5Q226 988 343.5 1060.0Q461 1132 618 1132Q776 1132 893.5 1060.0Q1011 988 1076.0 857.5Q1141 727 1141 553Q1141 381 1076.0 251.0Q1011 121 893.5 49.0Q776 -23 618 -23ZM618 163Q720 163 786.5 216.5Q853 270 885.5 358.5Q918 447 918 553Q918 660 885.5 749.5Q853 839 786.5 892.5Q720 946 618 946Q517 946 451.0 892.5Q385 839 352.5 750.0Q320 661 320 553Q320 447 352.5 358.5Q385 270 451.0 216.5Q517 163 618 163Z"/></g><g transform="translate(127.924,0) scale(0.010474,-0.010474)"><path d="M148 0V1118H361V938H373Q404 1030 481.0 1082.0Q558 1134 656 1134Q677 1134 704.0 1132.5Q731 1131 749 1128V918Q737 922 703.0 926.0Q669 930 634 930Q558 930 497.0 898.0Q436 866 402.0 809.5Q368 753 368 679V0Z"/></g><g transform="translate(136.477,0) scale(0.010474,-0.010474)"><path d="M630 -23Q465 -23 345.0 48.0Q225 119 160.5 248.0Q96 377 96 551Q96 723 159.5 854.0Q223 985 339.0 1058.5Q455 1132 611 1132Q707 1132 796.0 1100.5Q885 1069 956.0 1002.0Q1027 935 1068.5 828.5Q1110 722 1110 570V492H219V656H997L894 602Q894 705 862.0 783.5Q830 862 767.5 906.0Q705 950 611 950Q518 950 452.0 905.0Q386 860 351.5 786.5Q317 713 317 626V514Q317 399 356.5 319.5Q396 240 467.0 199.5Q538 159 632 159Q694 159 744.0 176.5Q794 194 830.5 229.5Q867 265 886 317L1093 268Q1066 182 1002.5 116.0Q939 50 844.5 13.5Q750 -23 630 -23Z"/></g><g transform="translate(155.310,0) scale(0.010474,-0.010474)"><path d="M133 -402 187 -223 212 -229Q269 -244 314.5 -237.0Q360 -230 393.5 -194.5Q427 -159 447 -87L471 -5L46 1118H284L505 483Q542 377 566.5 272.0Q591 167 620 63H552Q581 167 607.5 272.5Q634 378 671 483L896 1118H1132L646 -155Q612 -245 562.5 -305.0Q513 -365 445.0 -395.5Q377 -426 287 -426Q235 -426 194.0 -418.5Q153 -411 133 -402Z"/></g><g transform="translate(167.905,0) scale(0.010474,-0.010474)"><path d="M618 -23Q461 -23 343.5 49.0Q226 121 161.0 251.0Q96 381 96 553Q96 727 161.0 857.5Q226 988 343.5 1060.0Q461 1132 618 1132Q776 1132 893.5 1060.0Q1011 988 1076.0 857.5Q1141 727 1141 553Q1141 381 1076.0 251.0Q1011 121 893.5 49.0Q776 -23 618 -23ZM618 163Q720 163 786.5 216.5Q853 270 885.5 358.5Q918 447 918 553Q918 660 885.5 749.5Q853 839 786.5 892.5Q720 946 618 946Q517 946 451.0 892.5Q385 839 352.5 750.0Q320 661 320 553Q320 447 352.5 358.5Q385 270 451.0 216.5Q517 163 618 163Z"/></g><g transform="translate(181.118,0) scale(0.010474,-0.010474)"><path d="M529 -14Q415 -14 329.0 34.0Q243 82 195.5 176.0Q148 270 148 408V1118H368V435Q368 314 431.5 246.0Q495 178 604 178Q679 178 737.5 210.5Q796 243 830.0 305.5Q864 368 864 456V1118H1084V0H874L873 274H894Q845 122 751.0 54.0Q657 -14 529 -14Z"/></g><g transform="translate(200.255,0) scale(0.010474,-0.010474)"><path d="M703 -22Q602 -22 537.5 12.5Q473 47 436.5 93.0Q400 139 380 175H362V0H148V1490H368V936H380Q400 971 435.5 1017.0Q471 1063 534.5 1097.5Q598 1132 703 1132Q837 1132 942.5 1064.0Q1048 996 1109.0 867.0Q1170 738 1170 556Q1170 376 1110.0 246.5Q1050 117 944.5 47.5Q839 -22 703 -22ZM654 165Q750 165 815.0 217.0Q880 269 912.5 358.0Q945 447 945 558Q945 668 912.5 755.5Q880 843 815.5 894.0Q751 945 654 945Q560 945 495.0 896.5Q430 848 397.0 761.5Q364 675 364 558Q364 442 397.5 353.5Q431 265 496.0 215.0Q561 165 654 165Z"/></g><g transform="translate(213.772,0) scale(0.010474,-0.010474)"><path d="M529 -14Q415 -14 329.0 34.0Q243 82 195.5 176.0Q148 270 148 408V1118H368V435Q368 314 431.5 246.0Q495 178 604 178Q679 178 737.5 210.5Q796 243 830.0 305.5Q864 368 864 456V1118H1084V0H874L873 274H894Q845 122 751.0 54.0Q657 -14 529 -14Z"/></g><g transform="translate(226.933,0) scale(0.010474,-0.010474)"><path d="M148 0V1118H368V0ZM259 1289Q202 1289 161.5 1327.0Q121 1365 121 1419Q121 1474 161.5 1512.0Q202 1550 259 1550Q316 1550 357.0 1512.0Q398 1474 398 1419Q398 1365 357.0 1327.0Q316 1289 259 1289Z"/></g><g transform="translate(232.595,0) scale(0.010474,-0.010474)"><path d="M368 1490V0H148V1490Z"/></g><g transform="translate(238.257,0) scale(0.010474,-0.010474)"><path d="M564 -22Q428 -22 322.0 47.5Q216 117 156.0 246.5Q96 376 96 556Q96 738 157.0 867.0Q218 996 324.0 1064.0Q430 1132 564 1132Q668 1132 731.5 1097.5Q795 1063 831.0 1017.0Q867 971 886 936H898V1490H1118V0H904V175H886Q867 139 830.0 93.0Q793 47 729.0 12.5Q665 -22 564 -22ZM612 165Q706 165 770.5 215.0Q835 265 868.5 353.5Q902 442 902 558Q902 675 869.0 761.5Q836 848 771.5 896.5Q707 945 612 945Q515 945 450.5 894.0Q386 843 353.5 755.5Q321 668 321 558Q321 447 354.0 358.0Q387 269 452.0 217.0Q517 165 612 165Z"/></g><g transform="translate(257.750,0) scale(0.010474,-0.010474)"><path d="M148 0V1118H368V0ZM259 1289Q202 1289 161.5 1327.0Q121 1365 121 1419Q121 1474 161.5 1512.0Q202 1550 259 1550Q316 1550 357.0 1512.0Q398 1474 398 1419Q398 1365 357.0 1327.0Q316 1289 259 1289Z"/></g><g transform="translate(263.412,0) scale(0.010474,-0.010474)"><path d="M626 1118V939H20V1118ZM183 1384H403V302Q403 235 431.5 203.5Q460 172 525 172Q542 172 570.0 176.0Q598 180 618 184L657 8Q622 -4 582.0 -9.5Q542 -15 503 -15Q351 -15 267.0 63.5Q183 142 183 284Z"/></g><g transform="translate(270.969,0) scale(0.010474,-0.010474)"><path d="M311 -15Q249 -15 206.0 28.0Q163 71 163 132Q163 194 206.0 236.5Q249 279 311 279Q372 279 415.0 236.5Q458 194 458 132Q458 71 415.0 28.0Q372 -15 311 -15Z"/></g></g></g></svg>